{
    "asset" : {
        "generator" : "Khronos glTF Blender I/O v1.3.48",
        "version" : "2.0"
    },
    "scene" : 0,
    "scenes" : [
        {
            "name" : "Scene",
            "nodes" : [
                2,
                3,
                4,
                5,
                6
            ]
        }
    ],
    "nodes" : [
        {
            "mesh" : 0,
            "name" : "Object_2"
        },
        {
            "children" : [
                0
            ],
            "name" : "Segmentation_brain.stl.cleaner.materialmerger.gles"
        },
        {
            "children" : [
                1
            ],
            "name" : "Sketchfab_model",
            "rotation" : [
                -0.7071068286895752,
                0,
                0,
                0.7071068286895752
            ]
        },
        {
            "name" : "Light",
            "rotation" : [
                0.16907575726509094,
                0.7558803558349609,
                -0.27217137813568115,
                0.570947527885437
            ],
            "translation" : [
                4.076245307922363,
                5.903861999511719,
                -1.0054539442062378
            ]
        },
        {
            "name" : "Camera",
            "rotation" : [
                0.483536034822464,
                0.33687159419059753,
                -0.20870360732078552,
                0.7804827094078064
            ],
            "translation" : [
                7.358891487121582,
                4.958309173583984,
                6.925790786743164
            ]
        },
        {
            "mesh" : 1,
            "name" : "Cube",
            "scale" : [
                10,
                10,
                10
            ],
            "translation" : [
                2.904320001602173,
                41.77450180053711,
                74.23670196533203
            ]
        },
        {
            "mesh" : 2,
            "name" : "Cube.001",
            "scale" : [
                10,
                10,
                10
            ],
            "translation" : [
                -58.720401763916016,
                41.77450180053711,
                3.3570098876953125
            ]
        }
    ],
    "materials" : [
        {
            "doubleSided" : true,
            "emissiveFactor" : [
                0,
                0,
                0
            ],
            "name" : "Scene_-_Root",
            "pbrMetallicRoughness" : {
                "baseColorFactor" : [
                    0.4851500689983368,
                    0.22696581482887268,
                    0.10461653023958206,
                    1
                ],
                "metallicFactor" : 0,
                "roughnessFactor" : 0.268398255109787
            }
        }
    ],
    "meshes" : [
        {
            "name" : "Object_0",
            "primitives" : [
                {
                    "attributes" : {
                        "POSITION" : 0,
                        "NORMAL" : 1
                    },
                    "indices" : 2,
                    "material" : 0
                }
            ]
        },
        {
            "name" : "Cube.001",
            "primitives" : [
                {
                    "attributes" : {
                        "POSITION" : 3,
                        "NORMAL" : 4,
                        "TEXCOORD_0" : 5
                    },
                    "indices" : 6
                }
            ]
        },
        {
            "name" : "Cube.002",
            "primitives" : [
                {
                    "attributes" : {
                        "POSITION" : 7,
                        "NORMAL" : 8,
                        "TEXCOORD_0" : 9
                    },
                    "indices" : 6
                }
            ]
        }
    ],
    "accessors" : [
        {
            "bufferView" : 0,
            "componentType" : 5126,
            "count" : 25783,
            "max" : [
                70.76988983154297,
                96.09352111816406,
                72.71419525146484
            ],
            "min" : [
                -66.4629135131836,
                -87.22038269042969,
                -95.30975341796875
            ],
            "type" : "VEC3"
        },
        {
            "bufferView" : 1,
            "componentType" : 5126,
            "count" : 25783,
            "type" : "VEC3"
        },
        {
            "bufferView" : 2,
            "componentType" : 5123,
            "count" : 151143,
            "type" : "SCALAR"
        },
        {
            "bufferView" : 3,
            "componentType" : 5126,
            "count" : 24,
            "max" : [
                1,
                1,
                1
            ],
            "min" : [
                -1,
                -1,
                -1
            ],
            "type" : "VEC3"
        },
        {
            "bufferView" : 4,
            "componentType" : 5126,
            "count" : 24,
            "type" : "VEC3"
        },
        {
            "bufferView" : 5,
            "componentType" : 5126,
            "count" : 24,
            "type" : "VEC2"
        },
        {
            "bufferView" : 6,
            "componentType" : 5123,
            "count" : 36,
            "type" : "SCALAR"
        },
        {
            "bufferView" : 7,
            "componentType" : 5126,
            "count" : 24,
            "max" : [
                1,
                1,
                1
            ],
            "min" : [
                -1,
                -1,
                -1
            ],
            "type" : "VEC3"
        },
        {
            "bufferView" : 8,
            "componentType" : 5126,
            "count" : 24,
            "type" : "VEC3"
        },
        {
            "bufferView" : 9,
            "componentType" : 5126,
            "count" : 24,
            "type" : "VEC2"
        }
    ],
    "bufferViews" : [
        {
            "buffer" : 0,
            "byteLength" : 309396,
            "byteOffset" : 0
        },
        {
            "buffer" : 0,
            "byteLength" : 309396,
            "byteOffset" : 309396
        },
        {
            "buffer" : 0,
            "byteLength" : 302286,
            "byteOffset" : 618792
        },
        {
            "buffer" : 0,
            "byteLength" : 288,
            "byteOffset" : 921080
        },
        {
            "buffer" : 0,
            "byteLength" : 288,
            "byteOffset" : 921368
        },
        {
            "buffer" : 0,
            "byteLength" : 192,
            "byteOffset" : 921656
        },
        {
            "buffer" : 0,
            "byteLength" : 72,
            "byteOffset" : 921848
        },
        {
            "buffer" : 0,
            "byteLength" : 288,
            "byteOffset" : 921920
        },
        {
            "buffer" : 0,
            "byteLength" : 288,
            "byteOffset" : 922208
        },
        {
            "buffer" : 0,
            "byteLength" : 192,
            "byteOffset" : 922496
        }
    ],
    "buffers" : [
        {
            "byteLength" : 922688,
            "uri" : "data:application/octet-stream;base64,"
        }
    ]
}
