<?xml version="1.0" standalone="no"?>
<!DOCTYPE svg PUBLIC "-//W3C//DTD SVG 20010904//EN"
 "http://www.w3.org/TR/2001/REC-SVG-20010904/DTD/svg10.dtd">
<svg version="1.0" xmlns="http://www.w3.org/2000/svg"
 width="1048.000000pt" height="1048.000000pt" viewBox="0 0 1048.000000 1048.000000"
 preserveAspectRatio="xMidYMid meet">
<metadata>
Created by potrace 1.14, written by Peter Selinger 2001-2017
</metadata>
<g transform="translate(0.000000,1048.000000) scale(0.100000,-0.100000)"
fill="#000000" stroke="none">
<path d="M2761 9084 c-19 -24 -21 -40 -21 -165 0 -77 -2 -139 -5 -139 -7 0
-304 70 -360 85 -27 7 -104 25 -170 40 -66 15 -151 35 -190 45 -38 10 -124 30
-190 45 -66 15 -152 36 -191 46 -95 26 -118 24 -143 -7 -20 -25 -21 -40 -21
-221 l0 -194 -32 5 c-63 10 -726 85 -909 102 -63 6 -66 6 -87 -21 l-22 -28 0
-3358 0 -3358 22 -25 c20 -21 36 -27 113 -35 50 -6 212 -24 360 -41 149 -16
410 -46 580 -65 171 -19 531 -60 800 -90 270 -31 531 -60 580 -65 50 -5 209
-23 355 -40 146 -17 328 -37 405 -45 77 -9 192 -22 255 -29 63 -8 140 -17 170
-20 62 -6 328 -36 585 -66 94 -11 238 -27 320 -37 83 -9 161 -17 175 -16 14 1
149 15 300 33 151 17 334 38 405 45 72 8 249 28 395 45 146 17 326 37 400 45
74 8 254 28 400 45 146 16 326 37 400 45 74 8 254 28 400 45 146 17 308 35
360 40 52 6 129 15 170 20 41 5 138 16 215 25 146 15 289 31 585 65 96 11 256
29 355 40 99 11 202 23 229 26 27 4 56 14 67 25 19 19 19 97 19 3389 l0 3370
-21 21 c-19 19 -29 21 -88 15 -188 -18 -871 -95 -903 -102 l-28 -6 0 195 c0
181 -1 196 -21 221 -11 14 -28 26 -38 26 -10 0 -284 -63 -609 -140 -325 -77
-596 -140 -602 -140 -6 0 -10 51 -10 145 0 132 -2 147 -20 165 -27 27 -41 26
-145 -16 -50 -19 -164 -64 -255 -99 -91 -35 -352 -136 -580 -225 -228 -88
-559 -217 -735 -285 -176 -68 -390 -151 -475 -184 -85 -34 -165 -61 -177 -61
-12 0 -73 20 -135 44 -110 43 -590 229 -1348 523 -206 80 -478 185 -604 234
-126 49 -237 89 -247 89 -10 0 -27 -12 -38 -26z m257 -194 c70 -27 384 -149
697 -270 568 -220 747 -289 1070 -416 94 -36 194 -75 223 -86 l52 -19 0 -178
0 -179 -119 -42 c-111 -39 -122 -41 -158 -30 -21 7 -44 17 -52 23 -17 14 -120
12 -186 -4 -27 -6 -80 -27 -116 -45 -114 -57 -179 -74 -281 -74 -164 -1 -229
-14 -357 -74 -64 -29 -152 -65 -196 -80 -45 -14 -112 -45 -150 -67 -108 -63
-161 -88 -231 -110 -46 -14 -76 -31 -104 -59 -21 -21 -49 -41 -62 -45 -12 -4
-55 -25 -94 -46 -39 -21 -74 -39 -78 -39 -3 0 -6 425 -6 945 0 648 3 945 10
945 6 0 68 -22 138 -50z m4372 -890 c0 -517 -1 -940 -3 -940 -9 0 -80 59 -147
122 -54 52 -102 86 -165 118 -56 29 -107 64 -140 96 -60 61 -98 82 -162 91
-28 3 -71 20 -103 39 -30 18 -100 52 -155 75 -93 38 -105 40 -174 36 -64 -4
-79 -1 -116 20 -32 18 -69 26 -142 33 -54 5 -132 16 -175 24 -113 23 -304 31
-365 17 -43 -11 -59 -10 -100 3 -26 9 -91 19 -143 22 l-95 5 2 166 c1 91 6
169 10 173 4 4 58 26 118 50 61 23 265 102 455 176 190 73 532 206 760 294
228 89 489 190 580 225 91 35 181 70 200 79 19 8 41 15 48 16 9 0 12 -194 12
-940z m-5215 777 l560 -133 3 -846 2 -845 -32 -56 c-25 -42 -39 -56 -56 -57
-29 0 -94 -27 -107 -43 -5 -7 -47 -41 -92 -75 -90 -68 -115 -96 -143 -158 -14
-32 -33 -53 -74 -79 -80 -51 -121 -89 -152 -143 -15 -26 -49 -71 -76 -100 -57
-61 -113 -173 -140 -282 -10 -41 -24 -93 -29 -115 -6 -22 -8 -62 -5 -89 3 -32
0 -70 -11 -105 -13 -47 -15 -87 -9 -256 4 -110 11 -216 16 -236 15 -54 66
-125 117 -158 30 -20 58 -51 82 -93 51 -88 182 -257 237 -308 50 -46 107 -75
169 -85 46 -8 184 -73 234 -110 19 -14 42 -25 52 -25 18 0 19 -34 19 -1024 0
-961 1 -1025 18 -1044 9 -11 82 -45 162 -75 80 -31 231 -89 335 -130 105 -41
328 -128 497 -193 169 -65 306 -119 304 -121 -1 -2 -555 135 -1229 304 l-1227
308 0 3252 c0 1789 3 3253 8 3253 4 0 259 -60 567 -133z m6487 -3122 l-2
-3255 -23 -5 c-12 -3 -569 -142 -1237 -309 -668 -167 -1216 -303 -1217 -302
-2 2 36 17 85 36 48 18 173 66 277 107 253 98 475 185 730 283 116 45 218 89
228 97 16 15 17 51 17 479 l0 462 43 33 c23 17 112 103 198 189 117 119 158
167 167 196 6 21 37 81 68 133 31 52 65 121 77 155 24 71 26 155 5 188 -8 13
-22 44 -32 70 -10 26 -36 69 -60 95 -34 40 -66 91 -66 107 0 10 69 26 114 26
35 0 62 7 86 22 19 12 64 36 100 53 69 34 87 54 153 175 62 114 80 182 73 280
-4 47 -10 139 -15 205 -9 132 -26 191 -80 269 -26 37 -35 64 -43 124 -13 98
-61 196 -134 272 -32 34 -54 66 -54 79 0 34 -49 168 -81 223 -46 78 -104 152
-149 190 -31 27 -42 45 -47 74 -10 72 -68 175 -144 259 -40 44 -83 88 -96 98
-13 10 -23 28 -23 39 0 12 -13 45 -30 75 l-30 53 0 855 0 855 23 5 c110 28
1104 263 1112 264 7 1 9 -1088 7 -3254z m-7773 2900 c174 -20 370 -42 436 -50
66 -8 125 -15 132 -15 11 0 13 -582 13 -3069 0 -1834 4 -3079 9 -3094 5 -13
22 -29 38 -35 15 -6 552 -142 1193 -303 641 -160 1215 -304 1275 -320 110 -29
110 -29 45 -24 -36 2 -184 18 -330 35 -146 17 -326 37 -400 45 -74 8 -254 28
-400 45 -459 52 -979 111 -1155 130 -93 10 -271 30 -395 44 -619 71 -756 86
-772 86 -17 0 -18 163 -18 3280 0 1804 3 3280 7 3280 3 0 148 -16 322 -35z
m8821 -3243 l0 -3278 -202 -22 c-112 -13 -279 -32 -373 -43 -93 -10 -271 -30
-395 -44 -218 -25 -370 -42 -745 -84 -280 -32 -624 -70 -810 -91 -93 -11 -273
-31 -400 -45 -126 -14 -302 -35 -391 -45 -88 -11 -174 -20 -190 -19 -16 0 540
144 1236 318 696 175 1277 321 1293 324 15 4 36 16 47 27 20 20 20 47 20 3099
l0 3078 48 7 c41 5 253 30 702 80 63 8 125 14 138 15 l22 1 0 -3278z m-4297
2282 c19 -16 38 -24 51 -21 12 3 50 13 86 22 57 14 82 15 195 5 72 -6 159 -17
195 -25 36 -8 85 -15 110 -15 70 -1 120 -16 150 -45 29 -28 51 -30 147 -10 41
9 169 -39 259 -97 44 -27 80 -42 125 -49 59 -9 69 -15 124 -69 40 -39 88 -72
145 -100 58 -29 107 -63 155 -109 39 -36 105 -94 147 -129 78 -62 147 -143
148 -172 1 -46 23 -90 54 -109 18 -12 66 -58 105 -104 73 -83 83 -105 121
-254 8 -33 19 -46 54 -67 80 -47 205 -265 206 -359 0 -40 22 -77 66 -113 63
-51 106 -133 121 -233 9 -52 23 -101 38 -126 77 -129 78 -132 88 -280 17 -249
18 -248 -38 -363 -54 -113 -61 -121 -124 -146 -24 -9 -55 -26 -69 -37 -17 -13
-40 -19 -74 -19 -27 0 -77 -10 -112 -22 l-63 -22 -94 23 c-118 29 -159 26
-177 -11 -23 -49 0 -77 91 -109 42 -15 97 -39 122 -54 38 -21 45 -31 45 -56 0
-23 11 -40 46 -72 50 -45 74 -84 74 -117 0 -12 8 -35 17 -51 14 -24 15 -33 5
-49 -6 -11 -12 -31 -12 -46 0 -14 -14 -45 -30 -69 -17 -25 -52 -88 -77 -141
-37 -77 -58 -105 -101 -143 -30 -25 -60 -58 -68 -73 -8 -15 -54 -62 -102 -104
-66 -58 -115 -91 -206 -135 -65 -33 -131 -59 -146 -59 -17 0 -44 -13 -70 -35
-45 -38 -78 -49 -185 -65 -124 -17 -241 -12 -340 15 -109 30 -136 31 -160 5
-15 -17 -17 -31 -12 -98 8 -103 44 -271 101 -466 29 -99 43 -163 37 -169 -12
-12 -167 -10 -192 3 -27 15 -49 63 -114 250 -75 214 -157 417 -195 478 -16 26
-49 62 -72 79 -131 94 -347 355 -362 439 -8 41 -39 64 -86 64 -79 1 -207 65
-306 153 l-54 49 0 1829 0 1829 91 0 c83 0 94 -2 122 -26z m-343 -1799 l0
-1804 -62 -50 c-87 -70 -180 -114 -350 -165 -84 -25 -161 -55 -180 -69 -39
-29 -149 -67 -192 -67 -17 1 -56 7 -86 14 -50 12 -71 21 -143 63 -11 6 -34 9
-51 6 -24 -3 -45 4 -91 33 -98 60 -108 64 -165 64 -70 0 -163 24 -202 51 -38
28 -143 161 -174 221 -31 62 -30 94 6 181 58 134 32 176 -110 178 -47 1 -119
8 -160 16 -41 8 -134 18 -205 22 -128 8 -160 16 -200 51 -27 25 -172 87 -231
100 -87 19 -121 47 -223 181 -53 69 -108 150 -123 180 -29 60 -50 83 -90 98
-14 5 -39 27 -54 47 -29 37 -29 40 -38 231 -8 174 -7 201 9 253 12 40 16 76
13 112 -3 31 0 74 8 103 8 28 19 73 25 100 17 75 65 169 108 212 21 21 54 63
73 93 41 63 57 78 150 143 53 38 72 58 92 102 16 32 43 68 69 89 147 120 159
128 182 122 31 -8 75 9 94 37 9 11 30 46 46 76 25 46 41 62 100 96 105 62 167
93 199 100 15 3 44 24 64 45 19 22 51 44 71 50 64 20 114 43 221 101 58 32
143 72 190 88 47 16 130 51 185 77 l100 47 150 7 c182 9 220 18 357 82 135 63
193 70 275 37 83 -33 108 -30 283 37 19 7 41 13 48 14 9 0 12 -367 12 -1805z
m-1955 -1464 c22 -6 61 -11 88 -11 26 0 47 -2 47 -5 0 -3 -9 -33 -21 -67 -24
-71 -20 -115 17 -198 45 -100 193 -273 266 -311 49 -25 151 -49 213 -49 39 0
60 -7 95 -31 71 -48 117 -69 149 -69 17 0 56 -12 88 -26 72 -33 161 -53 233
-54 67 0 199 42 255 81 22 15 60 33 85 39 153 38 305 100 398 161 l32 21 0
-1131 c0 -622 -1 -1131 -3 -1131 -1 0 -43 16 -92 36 -50 19 -265 103 -480 186
-214 83 -475 184 -580 225 -104 40 -282 109 -395 153 -113 43 -302 117 -420
163 l-215 84 -3 969 c-1 533 0 974 2 979 4 12 178 2 241 -14z m2166 -603 c63
-41 157 -82 212 -92 20 -4 37 -12 37 -19 0 -7 30 -57 67 -112 68 -103 212
-260 308 -336 77 -62 100 -110 251 -529 41 -113 86 -223 102 -244 45 -66 99
-87 228 -89 102 -1 113 0 162 26 54 28 92 75 92 112 0 11 -7 34 -16 50 -9 17
-20 44 -24 60 -4 17 -23 84 -43 150 -31 104 -77 305 -77 333 0 6 20 4 47 -4
55 -17 248 -19 357 -3 94 13 179 41 222 74 18 14 40 25 48 25 9 0 43 13 76 29
l60 29 0 -396 0 -397 -188 -72 c-103 -39 -304 -117 -447 -173 -274 -106 -798
-309 -1200 -465 -132 -51 -264 -102 -292 -114 l-53 -21 -2 1114 c-2 741 0
1112 7 1108 6 -4 35 -23 66 -44z"/>
</g>
</svg>
