<?xml version="1.0" encoding="UTF-8"?><svg id="extra_illus." xmlns="http://www.w3.org/2000/svg" width="21" height="21" viewBox="0 0 21 21"><path d="m17.07,10.51c1.82,0,3.29-1.47,3.29-3.29s-1.47-3.29-3.29-3.29h0c0-1.82-1.47-3.29-3.29-3.29s-3.29,1.47-3.29,3.29c0,0,0,0,0,.01h0s0,0,0-.01c0-1.82-1.47-3.29-3.29-3.29s-3.29,1.47-3.29,3.29c0,0,0,0,0,.01h0v.15c-1.81.01-3.27,1.48-3.27,3.29s1.46,3.28,3.27,3.29h0c-1.81.01-3.27,1.48-3.27,3.29s1.47,3.29,3.28,3.29c.1,1.73,1.53,3.11,3.28,3.11s3.27-1.45,3.29-3.25h0c.02,1.8,1.49,3.25,3.29,3.25s3.27-1.45,3.29-3.25h0c1.82-.01,3.29-1.49,3.29-3.31s-1.47-3.29-3.29-3.29Z"/></svg>