<?xml version="1.0" encoding="UTF-8"?><svg id="extra_illus." xmlns="http://www.w3.org/2000/svg" width="21" height="21" viewBox="0 0 21 21"><path d="m1.11,10.5c0-.37,2-.61,2.05-.97s-1.83-1.11-1.73-1.46,2.09-.07,2.23-.4-1.47-1.55-1.29-1.86,2.04.48,2.26.19-1.03-1.87-.77-2.13,1.84.99,2.13.77-.51-2.08-.19-2.26,1.52,1.43,1.86,1.29.05-2.14.4-2.23,1.1,1.78,1.46,1.73.6-2.05.97-2.05.61,2,.97,2.05,1.11-1.83,1.46-1.73.07,2.09.4,2.23,1.55-1.47,1.86-1.29-.48,2.04-.19,2.26,1.87-1.03,2.13-.77-.99,1.84-.77,2.13,2.08-.51,2.26-.19-1.43,1.52-1.29,1.86,2.14.05,2.23.4-1.78,1.1-1.73,1.46,2.05.6,2.05.97-2,.61-2.05.97,1.83,1.11,1.73,1.46-2.09.07-2.23.4,1.47,1.55,1.29,1.86-2.04-.48-2.26-.19,1.03,1.87.77,2.13-1.84-.99-2.13-.77.51,2.08.19,2.26-1.52-1.43-1.86-1.29-.05,2.14-.4,2.23-1.1-1.78-1.46-1.73-.6,2.05-.97,2.05-.61-2-.97-2.05-1.11,1.83-1.46,1.73-.07-2.09-.4-2.23-1.55,1.47-1.86,1.29.48-2.04.19-2.26-1.87,1.03-2.13.77.99-1.84.77-2.13-2.08.51-2.26.19,1.43-1.52,1.29-1.86-2.14-.05-2.23-.4,1.78-1.1,1.73-1.46-2.05-.6-2.05-.97Z"/><path d="m1.11,10.5c0-.37,2-.61,2.05-.97s-1.83-1.11-1.73-1.46,2.09-.07,2.23-.4-1.47-1.55-1.29-1.86,2.04.48,2.26.19-1.03-1.87-.77-2.13,1.84.99,2.13.77-.51-2.08-.19-2.26,1.52,1.43,1.86,1.29.05-2.14.4-2.23,1.1,1.78,1.46,1.73.6-2.05.97-2.05.61,2,.97,2.05,1.11-1.83,1.46-1.73.07,2.09.4,2.23,1.55-1.47,1.86-1.29-.48,2.04-.19,2.26,1.87-1.03,2.13-.77-.99,1.84-.77,2.13,2.08-.51,2.26-.19-1.43,1.52-1.29,1.86,2.14.05,2.23.4-1.78,1.1-1.73,1.46,2.05.6,2.05.97-2,.61-2.05.97,1.83,1.11,1.73,1.46-2.09.07-2.23.4,1.47,1.55,1.29,1.86-2.04-.48-2.26-.19,1.03,1.87.77,2.13-1.84-.99-2.13-.77.51,2.08.19,2.26-1.52-1.43-1.86-1.29-.05,2.14-.4,2.23-1.1-1.78-1.46-1.73-.6,2.05-.97,2.05-.61-2-.97-2.05-1.11,1.83-1.46,1.73-.07-2.09-.4-2.23-1.55,1.47-1.86,1.29.48-2.04.19-2.26-1.87,1.03-2.13.77.99-1.84.77-2.13-2.08.51-2.26.19,1.43-1.52,1.29-1.86-2.14-.05-2.23-.4,1.78-1.1,1.73-1.46-2.05-.6-2.05-.97Z"/></svg>