<?xml version="1.0" encoding="UTF-8"?><svg id="extra_illus." xmlns="http://www.w3.org/2000/svg" width="21" height="21" viewBox="0 0 21 21"><path d="m17.61,13.83c1.56-.26,2.75-1.61,2.75-3.24,0-1.82-1.47-3.29-3.29-3.29v-.07c1.82,0,3.29-1.47,3.29-3.29s-1.47-3.29-3.29-3.29-3.28,1.47-3.29,3.28c0-1.82-1.47-3.29-3.29-3.29s-3.17,1.36-3.28,3.08c-.11-1.72-1.53-3.08-3.28-3.08S.64,2.11.64,3.93s1.46,3.28,3.27,3.29v.24c-1.81.01-3.27,1.48-3.27,3.29,0,1.5,1,2.76,2.37,3.16-1.37.4-2.37,1.66-2.37,3.16,0,1.82,1.47,3.29,3.29,3.29s3.17-1.36,3.28-3.08c.11,1.72,1.53,3.08,3.28,3.08s3.27-1.45,3.29-3.25h0c.02,1.8,1.48,3.26,3.29,3.26s3.29-1.47,3.29-3.29c0-1.63-1.19-2.99-2.75-3.24Z"/></svg>