<?xml version="1.0" encoding="UTF-8"?><svg id="extra_illus." xmlns="http://www.w3.org/2000/svg" width="21" height="21" viewBox="0 0 21 21"><path d="m20.49,10.31c0-1.37-1.11-2.49-2.48-2.5v-2.33h0s0-.02,0-.03c-.03-1.35-1.14-2.44-2.5-2.44s-2.46,1.09-2.5,2.44c0,.01,0,.02,0,.03h0s0-.02,0-.03c-.03-1.35-1.14-2.44-2.5-2.44s-2.46,1.09-2.5,2.44c0,.01,0,.02,0,.03h0c-.02-1.37-1.13-2.47-2.5-2.47s-2.48,1.1-2.5,2.47h0v2.45c-1.38,0-2.5,1.12-2.5,2.5s1.12,2.5,2.5,2.5v2.55h0s0,0,0,0c0,1.38,1.12,2.5,2.5,2.5s2.5-1.12,2.5-2.5c0,0,0,0,0,0h0s0,0,0,0c0,1.38,1.12,2.5,2.5,2.5s2.5-1.12,2.5-2.5c0,0,0,0,0,0h0s0,0,0,0c0,1.38,1.12,2.5,2.5,2.5s2.5-1.12,2.5-2.5c0,0,0,0,0,0h0v-2.67c1.37,0,2.48-1.12,2.48-2.5Z"/></svg>