<?xml version="1.0" encoding="utf-8"?>
<!-- Generator: Adobe Illustrator 27.6.1, SVG Export Plug-In . SVG Version: 6.00 Build 0)  -->
<svg version="1.1" id="extra_illus." xmlns="http://www.w3.org/2000/svg" xmlns:xlink="http://www.w3.org/1999/xlink" x="0px"
	 y="0px" viewBox="0 0 55 25" style="enable-background:new 0 0 55 25;" xml:space="preserve">
<style type="text/css">
	.st0{fill:none;stroke:#000000;stroke-linecap:round;stroke-miterlimit:10;}
</style>
<path class="st0" d="M8,10.8h6.7c0.1,0,0.1,0,0.2-0.1l3.3-3.9c0.1-0.1,0.3-0.1,0.4,0.1l3.2,7.7c0.1,0.2,0.4,0.2,0.4,0l3.2-7.5
	c0.1-0.2,0.4-0.2,0.4,0l3.2,7.5c0.1,0.2,0.4,0.2,0.4,0l3.2-7.5c0.1-0.2,0.3-0.2,0.4,0l3.2,7.7c0.1,0.2,0.3,0.2,0.4,0.1l3.3-3.9
	c0-0.1,0.1-0.1,0.2-0.1H47"/>
</svg>
