<?xml version="1.0" encoding="UTF-8"?>
<svg id="extra_illus." data-name="extra illus." xmlns="http://www.w3.org/2000/svg" viewBox="0 0 55 25">
  <defs>
    <style>
      .cls-1 {
        fill: none;
        stroke: #000;
        stroke-linecap: round;
        stroke-miterlimit: 10;
      }
    </style>
  </defs>
  <path class="cls-1" d="m3.02,10.83h11.72c.07,0,.13-.03.17-.09l3.3-3.9c.12-.14.32-.1.39.08l3.24,7.66c.09.21.35.21.44,0l3.18-7.5c.09-.21.35-.21.44,0l3.18,7.5c.09.21.35.21.44,0l3.18-7.5c.09-.21.35-.21.44,0l3.24,7.66c.08.18.28.22.39.08l3.3-3.9c.05-.05.11-.09.17-.09h11.72"/>
</svg>