<?xml version="1.0" encoding="UTF-8"?>
<svg id="Layer_2" data-name="Layer 2" xmlns="http://www.w3.org/2000/svg" xmlns:xlink="http://www.w3.org/1999/xlink" viewBox="0 0 941.73 820.67">
  <defs>
    <style>
      .cls-1 {
        stroke-linecap: round;
      }

      .cls-1, .cls-2, .cls-3, .cls-4, .cls-5, .cls-6, .cls-7 {
        stroke: #000;
      }

      .cls-1, .cls-4, .cls-8, .cls-6, .cls-7 {
        stroke-linejoin: round;
      }

      .cls-1, .cls-5, .cls-6 {
        fill: none;
      }

      .cls-9 {
        font-size: 9.31px;
      }

      .cls-9, .cls-10 {
        font-family: SpaceMono-Regular, 'Space Mono';
      }

      .cls-11 {
        fill: url(#linear-gradient);
        opacity: .7;
      }

      .cls-12, .cls-2, .cls-3, .cls-4, .cls-8, .cls-7 {
        fill: #fff;
      }

      .cls-10 {
        font-size: 10.84px;
      }

      .cls-13 {
        font-family: IBMPlexMono, 'IBM Plex Mono';
        font-size: 8.64px;
      }

      .cls-2, .cls-3, .cls-5 {
        stroke-miterlimit: 10;
      }

      .cls-2, .cls-4, .cls-8 {
        stroke-width: .5px;
      }

      .cls-8 {
        stroke: #c400ff;
      }

      .cls-6 {
        stroke-dasharray: 0 0 10.6 10.6;
      }

      .cls-14 {
        fill: #e0e0e0;
        opacity: .5;
      }
    </style>
    <linearGradient id="linear-gradient" x1="-752.33" y1="-11231.03" x2="-667.1" y2="-11145.79" gradientTransform="translate(10454.48 5143.74) rotate(-61.1)" gradientUnits="userSpaceOnUse">
      <stop offset=".35" stop-color="#ff0" stop-opacity=".3"/>
      <stop offset=".38" stop-color="#ff0" stop-opacity=".44"/>
      <stop offset=".41" stop-color="#ff0" stop-opacity=".61"/>
      <stop offset=".45" stop-color="#ff0" stop-opacity=".75"/>
      <stop offset=".49" stop-color="#ff0" stop-opacity=".86"/>
      <stop offset=".53" stop-color="#ff0" stop-opacity=".94"/>
      <stop offset=".57" stop-color="#ff0" stop-opacity=".98"/>
      <stop offset=".61" stop-color="#ff0"/>
    </linearGradient>
  </defs>
  <g id="extra_illus." data-name="extra illus.">
    <rect class="cls-3" x=".5" y="193" width="875.08" height="627.17"/>
  </g>
  <g id="ref_imges" data-name="ref imges">
    <rect class="cls-3" x="34.92" y="439.42" width="803.8" height="224.76"/>
    <rect class="cls-3" x="70.95" y="474.02" width="731.04" height="155.43"/>
  </g>
  <g id="text">
    <rect class="cls-3" x="828.68" y="281.34" width="97.02" height="30.57" rx="13.57" ry="13.57"/>
    <rect class="cls-3" x="828.68" y="331.02" width="97.02" height="30.57" rx="13.57" ry="13.57"/>
  </g>
  <g id="illustrations">
    <path class="cls-3" d="m231.34,122.17c0-23.26,18.86-42.12,42.12-42.12s42.12,18.86,42.12,42.12h-84.24Z"/>
    <circle class="cls-5" cx="312.21" cy="132.28" r="6.74"/>
    <circle class="cls-5" cx="231.34" cy="132.28" r="6.74"/>
    <line class="cls-5" x1="274" y1="122.17" x2="250.6" y2="98.03"/>
    <line class="cls-5" x1="227.97" y1="132.28" x2="234.71" y2="132.28"/>
    <line class="cls-5" x1="308.84" y1="132.28" x2="315.58" y2="132.28"/>
    <line class="cls-5" x1="312.21" y1="135.65" x2="312.21" y2="128.91"/>
    <text class="cls-13" transform="translate(258.68 71.02)"><tspan x="0" y="0">light</tspan></text>
    <path class="cls-3" d="m86.75,122.17c0-23.26,18.86-42.12,42.12-42.12s42.12,18.86,42.12,42.12h-84.24Z"/>
    <circle class="cls-5" cx="167.63" cy="132.28" r="6.74"/>
    <circle class="cls-5" cx="86.75" cy="132.28" r="6.74"/>
    <line class="cls-5" x1="129.41" y1="122.17" x2="129.35" y2="87.7"/>
    <line class="cls-5" x1="83.38" y1="132.28" x2="90.12" y2="132.28"/>
    <line class="cls-5" x1="164.26" y1="132.28" x2="171" y2="132.28"/>
    <line class="cls-5" x1="167.63" y1="135.65" x2="167.63" y2="128.91"/>
    <text class="cls-13" transform="translate(118.88 71.02)"><tspan x="0" y="0">dark</tspan></text>
    <g>
      <circle class="cls-7" cx="800.47" cy="322.75" r="4.89"/>
      <circle class="cls-7" cx="800.47" cy="317.13" r="4.89"/>
      <circle class="cls-7" cx="800.47" cy="311.51" r="4.89"/>
      <text class="cls-9" transform="translate(792.78 343.92)"><tspan x="0" y="0">Na+</tspan></text>
    </g>
    <g>
      <line class="cls-5" x1="941.73" y1="322.18" x2="822.65" y2="322.18"/>
      <polygon class="cls-1" points="822.65 327.12 816.03 322.18 822.65 317.25 822.65 327.12"/>
    </g>
  </g>
  <g id="Layer_6" data-name="Layer 6">
    <rect class="cls-7" x="381.83" y="348.51" width="100.4" height="200.8" rx="50.2" ry="50.2"/>
    <g>
      <circle class="cls-12" cx="350.17" cy="286.5" r="23.63"/>
      <path class="cls-6" d="m373.8,286.5c0,13.05-10.58,23.63-23.63,23.63s-23.63-10.58-23.63-23.63,10.58-23.63,23.63-23.63,23.63,10.58,23.63,23.63Z"/>
    </g>
    <text class="cls-10" transform="translate(336.9 292.01)"><tspan x="0" y="0">cGMP</tspan></text>
    <g>
      <circle class="cls-12" cx="640.14" cy="376.95" r="23.63"/>
      <path class="cls-6" d="m663.77,376.95c0,13.05-10.58,23.63-23.63,23.63s-23.63-10.58-23.63-23.63,10.58-23.63,23.63-23.63,23.63,10.58,23.63,23.63Z"/>
    </g>
    <text class="cls-10" transform="translate(626.88 382.46)"><tspan x="0" y="0">cGMP</tspan></text>
    <g>
      <circle class="cls-12" cx="128.74" cy="356.41" r="23.63"/>
      <path class="cls-6" d="m152.37,356.41c0,13.05-10.58,23.63-23.63,23.63s-23.63-10.58-23.63-23.63,10.58-23.63,23.63-23.63,23.63,10.58,23.63,23.63Z"/>
    </g>
    <text class="cls-10" transform="translate(115.47 361.93)"><tspan x="0" y="0">cGMP</tspan></text>
    <g>
      <circle class="cls-12" cx="824.41" cy="269.95" r="23.63"/>
      <path class="cls-6" d="m848.05,269.95c0,13.05-10.58,23.63-23.63,23.63s-23.63-10.58-23.63-23.63,10.58-23.63,23.63-23.63,23.63,10.58,23.63,23.63Z"/>
    </g>
    <text class="cls-10" transform="translate(811.15 275.47)"><tspan x="0" y="0">cGMP</tspan></text>
    <polygon class="cls-11" points="415.58 407.68 230.34 385.26 282.87 290.09 415.58 407.68"/>
    <polyline class="cls-5" points="422.71 452.05 452.72 452.05 469.81 469.34"/>
    <circle class="cls-3" cx="415.29" cy="452.05" r="13.84"/>
  </g>
  <g id="text_top" data-name="text top">
    <rect class="cls-14" x="5.31" y=".12" width="30.29" height="45.44"/>
    <polygon class="cls-2" points="5.31 121.27 20.45 121.27 35.6 121.27 35.6 45.56 5.31 45.56 5.31 121.27"/>
    <circle class="cls-2" cx="20.45" cy="136.4" r="15.14"/>
    <circle class="cls-2" cx="20.45" cy="136.4" r="5.95"/>
    <rect class="cls-2" x="16.01" y="108.9" width="8.89" height="3.58" rx="1.45" ry="1.45" transform="translate(-72.28 46.88) rotate(-45)"/>
    <rect class="cls-2" x="16.01" y="100.43" width="8.89" height="3.58" rx="1.45" ry="1.45" transform="translate(-66.29 44.4) rotate(-45)"/>
    <rect class="cls-2" x="16.01" y="91.97" width="8.89" height="3.58" rx="1.45" ry="1.45" transform="translate(-60.31 41.92) rotate(-45)"/>
    <rect class="cls-4" x="5.31" y="39.9" width="30.29" height="3.78"/>
    <rect class="cls-4" x="5.31" y="34.23" width="30.29" height="3.78"/>
    <rect class="cls-4" x="5.31" y="28.57" width="30.29" height="3.78"/>
    <rect class="cls-4" x="5.31" y="22.9" width="30.29" height="3.78"/>
    <rect class="cls-8" x="5.31" y="17.24" width="30.29" height="3.78"/>
    <rect class="cls-4" x="5.31" y="11.58" width="30.29" height="3.78"/>
    <rect class="cls-4" x="5.31" y="5.91" width="30.29" height="3.78"/>
    <rect class="cls-4" x="5.31" y=".25" width="30.29" height="3.78"/>
  </g>
</svg>