<?xml version="1.0" encoding="UTF-8"?><svg id="extra_illus." xmlns="http://www.w3.org/2000/svg" width="30.43" height="30.43" viewBox="0 0 30.43 30.43"><path d="m16.28,13.42h-1.32v-3.48l.11-1.69-.05-.03-1.34,1.19c-2.08,1.85-3.74,3.64-3.74,7.12,0,3.95,2.29,7.04,5.93,7.04s5.99-2.87,5.99-6.96c0-3.3-1.63-5.33-3.88-6.99l.74-.92c2.5,1.77,4.46,4.3,4.46,7.91,0,4.75-2.93,8.17-7.3,8.17s-7.25-3.56-7.25-8.25c0-4.25,2.22-6.3,4.25-8.07l1.29-1.13-.03-.08-1.74.13h-3.45v-1.32h7.36v7.36Z"/><path d="m15.86,24.98c-4.38,0-7.45-3.47-7.45-8.45,0-4.46,2.49-6.63,4.31-8.22l.95-.84-1.28.1h-3.66s0-1.71,0-1.71h7.75v7.75h-1.71v-3.68l.08-1.31-1.05.93c-2.01,1.78-3.68,3.54-3.68,6.97,0,4.03,2.36,6.84,5.74,6.84s5.79-2.72,5.79-6.77c0-3.56-2.03-5.52-3.8-6.83l-.16-.12.98-1.23.15.11c3.01,2.12,4.54,4.84,4.54,8.07,0,4.93-3.08,8.37-7.5,8.37Zm-1.6-17.94l.12.35-1.39,1.22c-1.86,1.62-4.18,3.64-4.18,7.92,0,4.74,2.9,8.06,7.06,8.06s7.11-3.28,7.11-7.98c0-3.04-1.42-5.61-4.22-7.64l-.5.62c1.8,1.37,3.79,3.4,3.79,7.02,0,4.28-2.48,7.16-6.18,7.16s-6.13-2.98-6.13-7.24c0-3.6,1.73-5.42,3.81-7.27l1.44-1.28.29.15-.11,1.82v3.27h.93v-6.97h-6.97v.93h3.26l1.88-.14Z"/></svg>