<?xml version="1.0" encoding="UTF-8"?><svg id="extra_illus." xmlns="http://www.w3.org/2000/svg" width="30.43" height="30.43" viewBox="0 0 30.43 30.43"><path d="m14.39,19.09h-6.62v-1.47l3.13-2.73c.98-.87,1.55-1.63,1.55-2.5v-.15c0-1-.58-1.57-1.61-1.57s-1.59.63-1.85,1.51l-1.35-.51c.38-1.21,1.36-2.34,3.31-2.34s3.12,1.18,3.12,2.82c0,1.52-.98,2.57-2.32,3.68l-2.32,1.95h4.96v1.3Z"/><path d="m15.76,19.09l2.64-3.6-2.53-3.49h1.74l.93,1.35.74,1.07h.08l.73-1.07.93-1.35h1.62l-2.54,3.43,2.66,3.65h-1.76l-1.06-1.52-.73-1.04h-.08l-.71,1.04-1.04,1.52h-1.63Z"/></svg>