<?xml version="1.0" encoding="UTF-8"?>
<svg id="Layer_1" data-name="Layer 1" xmlns="http://www.w3.org/2000/svg" viewBox="0 0 21 21">
  <defs>
    <style>
      .cls-1 {
        fill: #010101;
      }

      .cls-2 {
        fill: #fff;
        stroke: #010101;
        stroke-miterlimit: 10;
      }
    </style>
  </defs>
  <circle class="cls-2" cx="10.5" cy="10.5" r="10"/>
  <path class="cls-1" d="m11.22,9.29h-.89v-2.35l.07-1.14-.04-.02-.91.8c-1.41,1.25-2.53,2.45-2.53,4.8,0,2.67,1.55,4.75,4,4.75s4.04-1.94,4.04-4.7c0-2.22-1.1-3.59-2.62-4.71l.5-.62c1.69,1.19,3.01,2.9,3.01,5.34,0,3.2-1.97,5.52-4.93,5.52s-4.89-2.4-4.89-5.57c0-2.86,1.49-4.25,2.86-5.44l.87-.77-.02-.05-1.17.09h-2.33v-.89h4.96v4.96Z"/>
</svg>