<?xml version="1.0" encoding="utf-8"?>
<!-- Generator: Adobe Illustrator 27.6.1, SVG Export Plug-In . SVG Version: 6.00 Build 0)  -->
<svg version="1.1" id="Layer_1" xmlns="http://www.w3.org/2000/svg" xmlns:xlink="http://www.w3.org/1999/xlink" x="0px" y="0px"
	 viewBox="0 0 308.6 104.2" style="enable-background:new 0 0 308.6 104.2;" xml:space="preserve">
<style type="text/css">
	.st0{fill:none;}
	.st1{fill:none;stroke:#000000;stroke-width:1.5;stroke-linecap:round;stroke-linejoin:round;stroke-miterlimit:10;}
</style>
<g>
	<path d="M142.3,33.9c-2.9,0-4.3-1.7-4.3-4.2v-8.2h-4.4v-3h3c1.2,0,1.7-0.4,1.7-1.7v-3.7h3.5v5.4h6.2v3h-6.2v9.3h6.2v3H142.3z"/>
	<path d="M152.3,12h3.8v9.3h0.1c0.7-1.7,2-3.1,4.5-3.1c3,0,5.1,2.1,5.1,5.8v9.9H162v-9.3c0-2.2-1-3.3-2.9-3.3c-1.5,0-3,0.8-3,2.4
		v10.2h-3.8V12z"/>
	<path d="M169.5,26.3c0-5,2.8-8,7.3-8c4.4,0,7.2,3.1,7.2,7.7v1.2h-10.7v0.4c0,2.2,1.5,3.7,3.9,3.7c1.9,0,3.2-0.8,4.2-2.1l2.2,2.2
		c-1.1,1.6-3.2,2.9-6.4,2.9C172.3,34.3,169.5,31.2,169.5,26.3z M173.3,24.7V25h6.9v-0.3c0-2.2-1.3-3.6-3.4-3.6
		C174.8,21.1,173.3,22.6,173.3,24.7z"/>
	<path d="M135.6,53.1c0-4.9,2.8-8,7.5-8c4.6,0,7.5,3.1,7.5,8c0,4.9-2.8,8-7.5,8C138.5,61.2,135.6,58.1,135.6,53.1z M146.6,54.3V52
		c0-2.6-1.4-3.9-3.5-3.9c-2.2,0-3.5,1.4-3.5,3.9v2.4c0,2.6,1.4,3.9,3.5,3.9C145.2,58.2,146.6,56.9,146.6,54.3z"/>
	<path d="M154,45.5h3.8v2.7h0.2c0.8-1.8,2.2-3.1,4.6-3.1c3.5,0,5.8,2.6,5.8,8c0,5.4-2.3,8-5.8,8c-2.3,0-3.7-1.2-4.6-3.1h-0.2v8.6
		H154V45.5z M164.5,54.4v-2.4c0-2.3-1.3-3.8-3.5-3.8c-1.7,0-3.2,0.8-3.2,2.6v4.8c0,1.7,1.5,2.6,3.2,2.6
		C163.2,58.1,164.5,56.7,164.5,54.4z"/>
	<path d="M171.4,53.2c0-5,2.8-8,7.3-8c4.4,0,7.2,3.1,7.2,7.7v1.2h-10.7v0.4c0,2.2,1.5,3.7,3.9,3.7c1.9,0,3.2-0.8,4.2-2.1l2.2,2.2
		c-1.1,1.6-3.2,2.9-6.4,2.9C174.1,61.2,171.4,58.1,171.4,53.2z M175.2,51.6v0.2h6.9v-0.3c0-2.2-1.3-3.6-3.4-3.6
		C176.6,47.9,175.2,49.4,175.2,51.6z"/>
	<path d="M189.8,60.8V45.5h3.8v2.7h0.1c0.7-1.7,2-3.1,4.5-3.1c3,0,5.1,2.1,5.1,5.8v9.9h-3.8v-9.3c0-2.2-1-3.3-2.9-3.3
		c-1.5,0-3,0.8-3,2.4v10.2H189.8z"/>
	<path d="M215.4,38.9h3.8v9.3h0.2c0.8-1.8,2.2-3.1,4.6-3.1c3.5,0,5.8,2.6,5.8,8c0,5.4-2.3,8-5.8,8c-2.3,0-3.7-1.2-4.6-3.1h-0.2v2.7
		h-3.8V38.9z M225.9,54.4v-2.4c0-2.3-1.3-3.8-3.5-3.8c-1.7,0-3.2,0.8-3.2,2.6v4.8c0,1.7,1.5,2.6,3.2,2.6
		C224.6,58.1,225.9,56.7,225.9,54.4z"/>
	<path d="M233.4,57.8h3.8v-9.3h-3.8v-3h7.6v4.2h0.2c0.6-2.2,1.9-4.2,4.9-4.2h1.7v3.6h-3.1c-2.4,0-3.7,1.6-3.7,3.6v5.2h5.3v3h-12.9
		V57.8z"/>
	<path d="M263.5,60.8c-1.8,0-2.9-1-3.1-2.6h-0.1c-0.6,1.9-2.3,3-4.6,3c-3.1,0-5-1.7-5-4.6c0-3.1,2.3-4.6,6.8-4.6h2.7v-1
		c0-1.9-0.9-2.9-3-2.9c-1.9,0-3,0.8-3.9,2l-2.2-1.8c0.9-1.7,3.1-3,6.4-3c4,0,6.4,1.9,6.4,5.6V58h1.8v2.8H263.5z M260.1,56.2v-2h-2.6
		c-2.1,0-3.1,0.7-3.1,2v0.6c0,1.2,1,1.9,2.6,1.9C258.7,58.5,260.1,57.6,260.1,56.2z"/>
	<path d="M269.7,57.8h5v-9.3h-5v-3h8.8v12.3h4.7v3h-13.5V57.8z M274.2,41.2v-0.7c0-1.1,0.7-1.9,2.4-1.9c1.8,0,2.4,0.9,2.4,1.9v0.7
		c0,1.1-0.7,1.9-2.4,1.9C274.8,43.1,274.2,42.3,274.2,41.2z"/>
	<path d="M286.8,60.8V45.5h3.8v2.7h0.1c0.7-1.7,2-3.1,4.5-3.1c3,0,5.1,2.1,5.1,5.8v9.9h-3.8v-9.3c0-2.2-1-3.3-2.9-3.3
		c-1.5,0-3,0.8-3,2.4v10.2H286.8z"/>
	<path d="M127.5,87.7v-0.9c0-1.2,0.8-2.3,2.8-2.3c2,0,2.8,1,2.8,2.3v0.9c0,1.2-0.8,2.3-2.8,2.3C128.3,90,127.5,89,127.5,87.7z"/>
	<path d="M136.2,82c0-4.9,2.8-8,7.5-8c4.6,0,7.5,3.1,7.5,8c0,4.9-2.8,8-7.5,8C139,90,136.2,86.9,136.2,82z M147.2,83.2v-2.4
		c0-2.6-1.4-3.9-3.5-3.9c-2.2,0-3.5,1.4-3.5,3.9v2.4c0,2.6,1.4,3.9,3.5,3.9C145.8,87.1,147.2,85.8,147.2,83.2z"/>
	<path d="M154.8,86.7h3.8v-9.3h-3.8v-3h7.6v4.2h0.2c0.6-2.2,1.9-4.2,4.9-4.2h1.7v3.6h-3.1c-2.4,0-3.7,1.6-3.7,3.6v5.2h5.3v3h-12.9
		V86.7z"/>
	<path d="M179.2,96c-5.5,0-7.3-1.4-7.3-3.6c0-1.7,1-2.5,2.8-3v-0.2c-1.2-0.4-1.9-1.1-1.9-2.3c0-1.5,1.1-2.2,2.8-2.6v-0.1
		c-1.8-0.9-2.9-2.5-2.9-4.7c0-3.4,2.6-5.4,6.4-5.4c1,0,2,0.1,2.8,0.4v-0.7c0-1.2,0.8-2.1,2.2-2.1h2.8v2.8h-3.6V75
		c1.5,0.9,2.3,2.4,2.3,4.4c0,3.4-2.6,5.4-6.5,5.4c-0.8,0-1.5-0.1-2.2-0.2c-0.6,0.2-1.2,0.6-1.2,1.3c0,0.9,1,1,2.3,1h3.5
		c4.2,0,5.9,1.8,5.9,4.3C187.4,94.5,184.8,96,179.2,96z M181.3,90.1H176c-0.6,0.3-0.9,0.8-0.9,1.5c0,1.1,0.8,1.9,2.9,1.9h2.5
		c2.2,0,3.4-0.7,3.4-1.9C183.9,90.6,183.3,90.1,181.3,90.1z M181.9,79.8V79c0-1.5-0.9-2.5-2.8-2.5c-1.9,0-2.8,1-2.8,2.5v0.8
		c0,1.5,0.9,2.5,2.8,2.5C181,82.3,181.9,81.3,181.9,79.8z"/>
</g>
<g>
	<path class="st0" d="M64.1,68.5v-0.1C63.9,68.3,64,68.6,64.1,68.5z"/>
	<path class="st0" d="M63.9,67.8v0.2C64,68.1,64,68.1,63.9,67.8z"/>
	<polygon class="st1" points="19.2,10.8 6.1,9.4 6.1,92.8 63.9,99.3 63.9,99.3 19.2,88.1 	"/>
	<polygon class="st1" points="108.9,10.8 108.9,88.1 64.1,99.3 64.1,99.3 121.9,92.8 121.9,9.4 	"/>
	<path class="st1" d="M64.1,21.6c0,0-0.1,0-0.1,0v46.2c0.1,0.2,0,0.2,0,0.2v0.1c0,0,0,0,0,0.1c0,0.1,0.1,0.1,0.1,0.2V21.7V21.6z"/>
	<polygon class="st1" points="63.9,99.3 63.9,99.3 63.9,99.3 63.9,99.3 	"/>
	<polygon class="st1" points="35,9.1 19.2,5.3 19.2,10.8 35,12.6 	"/>
	<path class="st1" d="M35,87.1V62.2c-0.1,0-0.1,0-0.2,0c-1.6-0.3-1.4-0.7-2.1-1c-0.6-0.3-1.3-0.6-2-0.8c-0.6-0.1-0.9-0.2-1.5-0.5
		c-0.5-0.3-0.8-0.6-1.1-1c-0.2-0.3-0.4-0.6-0.7-1c-0.2-0.2-0.3-0.4-0.5-0.6c-0.3-0.4-0.6-0.8-0.8-1.1c-0.2-0.5-0.4-0.5-0.5-0.9
		c-0.1-0.2,0-0.4-0.2-0.5c-0.2-0.2-0.6-0.3-0.8-0.4c-0.8-0.6-1.2-1.4-1.2-2.4c0-2.2-0.2-2.1-0.1-3.2c0.1-0.6,0-1.2,0.2-1.8
		c0.3-0.6,0.2-0.7,0.1-1.3c-0.1-1.1,0.2-1.5,0.4-2.2c0.1-0.3,0.1-0.7,0.2-1c0.2-0.4,0.6-1.6,1.2-2.2c0.1-0.1,0.3-0.5,0.4-0.4
		c0.6-0.4,0.7-1.1,1.2-1.7c0.6-0.7,1.6-1,2.2-1.7c0.3-0.4,0.3-0.9,0.7-1.3c0.4-0.4,0.8-0.7,1.2-1c0.3-0.2,0.5-0.4,0.8-0.6
		c0.1-0.1,0.2-0.3,0.3-0.3c0.1-0.1,0.2-0.2,0.3-0.2c0.2-0.1,0.4-0.1,0.5-0.2c0.1-0.1,0.4,0.1,0.5,0c0.3-0.4,0.4-1,0.8-1.4
		c0.1-0.2,0.3-0.4,0.5-0.5V12.6l-15.9-1.8v77.3l44.7,11.2v0L35,87.1z"/>
	<path class="st1" d="M35,31c-0.2,0.2-0.4,0.4-0.5,0.5c-0.3,0.4-0.4,1-0.8,1.4c-0.1,0.1-0.4,0-0.5,0C33,33,32.8,33,32.6,33.1
		c-0.1,0-0.2,0.1-0.3,0.2c-0.1,0.1-0.2,0.3-0.3,0.3c-0.3,0.2-0.5,0.4-0.8,0.6c-0.4,0.3-0.9,0.6-1.2,1c-0.4,0.4-0.4,0.9-0.7,1.3
		c-0.6,0.7-1.6,1-2.2,1.7c-0.5,0.6-0.7,1.3-1.2,1.7c-0.1,0-0.3,0.3-0.4,0.4c-0.6,0.6-1,1.8-1.2,2.2c-0.1,0.3-0.1,0.7-0.2,1
		c-0.2,0.7-0.5,1.1-0.4,2.2c0.1,0.6,0.1,0.7-0.1,1.3c-0.3,0.6-0.2,1.2-0.2,1.8c-0.1,1.1,0.1,1,0.1,3.2c0,1,0.4,1.8,1.2,2.4
		c0.2,0.2,0.6,0.3,0.8,0.4c0.1,0.1,0.1,0.3,0.2,0.5c0.2,0.4,0.3,0.4,0.5,0.9c0.2,0.3,0.5,0.7,0.8,1.1c0.2,0.2,0.3,0.4,0.5,0.6
		c0.3,0.4,0.5,0.7,0.7,1c0.4,0.4,0.6,0.7,1.1,1c0.6,0.3,0.9,0.4,1.5,0.5c0.7,0.1,1.3,0.5,2,0.8c0.7,0.3,0.6,0.8,2.1,1
		c0.1,0,0.1,0,0.2,0"/>
	<polygon class="st1" points="64.1,99.3 64.1,99.3 64.1,99.3 64.1,99.3 	"/>
	<polygon class="st1" points="108.9,10.8 108.9,5.3 93,9.1 93,12.6 	"/>
	<path class="st1" d="M108.9,10.8L93,12.6v18.9c0.3,0.3,0.5,0.7,0.7,1.2c0.1,0.3,0,0.6,0.2,0.9c0.1,0.2,0.4,0.2,0.6,0.4
		c0.4,0.3,0.7,0.8,1.1,1.2c0.6,0.6,1,1.4,1.3,2.2c0,0,0,0.1,0.1,0.1c-0.1,0.4,0.2,0.9,0.2,1.3c0.4,0.1,0.8,0.4,1.2,0.9
		c0.6,0.7,1.3,1.7,1.6,2.6c0.2,0.5,0.4,1,0.4,1.5c0,0.7,0.2,0.8,0.7,1.2c0.7,0.6,1.3,1.6,1.6,2.5c0.2,0.5,0.1,1,0.2,1.5
		c0.1,0.5,0.5,0.8,0.7,1.3c0.6,1,0.8,1.9,0.7,3c-0.1,1.1,0.4,1.8,0.3,2.9c-0.1,1-0.6,2-1,2.9c-0.2,0.4-0.6,1.2-1.1,1.4
		c-0.2,0.1-0.4,0.2-0.7,0.3c-0.1,0-0.2,0-0.3,0.1c-0.2,0.1-0.4,0.3-0.5,0.4c-0.4,0.2-0.8,0.2-1.1,0.2c-0.2,0-0.4-0.1-0.6,0
		c-0.3,0.2-0.6,0.2-0.9,0.3c-0.9,0.3-2.4-0.3-3.4-0.4c0.7,0.2,1.4,0.4,1.9,0.7c0.8,0.3,1.5,0.8,1.4,1.7c1.2,0.8,1.6,1.6,1.5,2.4
		c0.7,0,0.6,1.4,0.1,1.7c0.2,0.7-0.5,1.3-0.8,1.9c-0.3,0.6-0.8,1.4-0.9,1.8c-0.1,0.7-0.8,1-1.7,1.9c0,0-0.4,0.5-0.4,0.6
		c-1,0.9-1.8,1.6-2.1,1.9c-0.4,0.3-0.7,0.5-1.1,0.7v10.8L64.1,99.3v0l44.7-11.2V10.8z"/>
	<path class="st1" d="M93,76.3c0.4-0.2,0.8-0.4,1.1-0.7c0.3-0.2,1.1-0.9,2.1-1.9c0,0,0.4-0.5,0.4-0.6c0.9-0.9,1.6-1.2,1.7-1.9
		c0.1-0.4,0.6-1.2,0.9-1.8c0.3-0.6,1-1.2,0.8-1.9c0.5-0.3,0.5-1.7-0.1-1.7c0.1-0.8-0.4-1.6-1.5-2.4c0.1-0.9-0.6-1.3-1.4-1.7
		c-0.6-0.3-1.3-0.5-1.9-0.7c1,0.2,2.5,0.8,3.4,0.4c0.3-0.1,0.6-0.1,0.9-0.3c0.2-0.1,0.4,0,0.6,0c0.4,0,0.8,0,1.1-0.2
		c0.1-0.1,0.3-0.3,0.5-0.4c0.1-0.1,0.3,0,0.3-0.1c0.2-0.1,0.4-0.2,0.7-0.3c0.5-0.2,0.9-0.9,1.1-1.4c0.4-0.9,0.9-1.9,1-2.9
		c0.1-1.1-0.4-1.7-0.3-2.9c0.1-1.1-0.1-2.1-0.7-3c-0.3-0.4-0.6-0.7-0.7-1.3c-0.1-0.5-0.1-1-0.2-1.5c-0.3-0.9-0.9-1.9-1.6-2.5
		c-0.5-0.4-0.7-0.6-0.7-1.2c0-0.5-0.2-1-0.4-1.5c-0.3-0.9-1.1-1.9-1.6-2.6c-0.4-0.5-0.8-0.7-1.2-0.9c0-0.4-0.3-0.9-0.2-1.3
		c0,0,0-0.1-0.1-0.1c-0.2-0.8-0.7-1.6-1.3-2.2c-0.3-0.3-0.7-0.8-1.1-1.2c-0.2-0.2-0.4-0.2-0.6-0.4c-0.2-0.3-0.1-0.6-0.2-0.9
		c-0.2-0.4-0.4-0.8-0.7-1.2"/>
	<path class="st1" d="M63.9,21.6C63.9,21.6,63.9,21.6,63.9,21.6l0-5.7L35,3.7v5.4l28.9,6.8V21.6z"/>
	<path class="st1" d="M63.9,67.9v0.2c0,0,0,0,0,0L63.9,67.9C63.9,67.8,63.9,67.8,63.9,67.9C63.9,67.8,63.9,67.9,63.9,67.9z"/>
	<path class="st1" d="M63.9,99.3L63.9,99.3l0-31.2c0,0,0,0,0-0.1V99.3z"/>
	<path class="st1" d="M63.9,67.9C63.9,67.9,63.9,67.8,63.9,67.9C63.9,67.8,63.9,67.8,63.9,67.9l0-46.2c0,0,0,0,0,0V67.9z"/>
	<path class="st1" d="M63.9,68.1L63.9,68.1C63.9,68.1,63.9,68.1,63.9,68.1L63.9,68.1C63.9,68.1,63.9,68.1,63.9,68.1z"/>
	<path class="st1" d="M63.9,68.1v-0.2c0,0,0,0,0,0v31.4l0,0V68.1C63.9,68.1,63.9,68.1,63.9,68.1z"/>
	<path class="st1" d="M63.9,15.9v5.7c0,0,0,0,0,0L63.9,15.9L35,9.1v3.5L63.9,15.9z"/>
	<path class="st1" d="M38,29.3c0.2-0.1,0.4,0,0.6-0.1c0.4-0.2,0.7-0.8,1-1c0.4-0.2,0.8-0.3,1.2-0.4c0.8-0.3,1.3-0.6,2-1
		c0.2-0.1,0.3-0.2,0.5-0.3c0.1-0.1,0.3-0.2,0.4-0.2c0.8-0.5,1.8-0.6,2.6-1c1-0.5,1.7-0.9,2.7-1.2c1-0.3,2.4-0.1,3.4-0.2
		c1.2-0.1,2-0.5,3-1c1-0.5,1.7-0.7,2.7-0.7c0.1,0,0.2,0,0.3,0c0.2,0,0.5,0.2,0.7,0.3c0.3,0.1,0.5,0.3,0.8,0.3
		c0.9-0.1,1.9-0.7,2.8-0.9c0.4-0.1,0.7-0.2,1.1-0.2v-5.7L35,12.6V31c0.2-0.1,0.3-0.3,0.5-0.3C36.3,30.2,37.1,29.7,38,29.3z"/>
	<path class="st1" d="M62.5,69.2c-0.9,0.6-1.9,1-2.7,1.4c-0.9,0.4-1.4,0.5-2.3,0.7c-0.1,0-0.4,0-0.5,0.1c-0.5,0.1-0.8,0.6-1.3,0.8
		c-0.5,0.2-1,0.3-1.5,0.5c-0.2,0.1-0.4,0-0.6,0c-0.1,0-0.3,0-0.4,0c-0.1,0-0.2,0-0.4,0c-0.5-0.2-0.9-0.2-1.3-0.3
		C51,72.1,51,72,50.6,71.9c-0.1,0-0.2-0.3-0.3-0.3c-0.1,0-0.8,0.1-0.8,0.1c-0.5-0.1-0.4-0.2-0.8-0.4c-0.4-0.2-0.7-0.5-1.1-0.7
		c-0.2-0.1-0.3-0.1-0.5-0.2c-0.3-0.1-0.8,0.1-1.1,0c-0.3,0-0.6-0.1-0.9-0.2c-0.7-0.2-1.3-0.5-1.7-0.9c-0.6-0.6-0.6-0.6-1.5-1.8
		c-0.3-0.3-0.4-0.7-0.6-1c-0.1-0.3-0.2-0.5-0.3-0.8c0-0.2-0.1-0.4-0.1-0.6c0-0.8,0.4-1.3,0.7-2c0,0,0.1-0.1,0.1-0.2
		c0-0.1,0-0.2,0-0.3c0,0-0.1,0-0.1,0c0,0-0.4,0-0.5,0c-0.4,0-0.6,0-0.8-0.1l0,0c-0.1,0.1,0,0-0.2,0c-0.6,0-1.9-0.3-2.3-0.3
		c-0.9-0.1-1.8-0.1-2.6-0.2v24.9l28.9,12.2V67.9C63.5,68.3,62.9,68.9,62.5,69.2z"/>
	<path class="st1" d="M63.9,21.6v46.3c0,0,0,0,0,0L63.9,21.6C63.9,21.6,63.9,21.6,63.9,21.6z"/>
	<path class="st1" d="M63.9,68.1L63.9,68.1C63.9,68.1,63.9,68.1,63.9,68.1z"/>
	<path class="st1" d="M35,62.2c0.8,0.1,1.8,0,2.6,0.2c0.5,0.1,1.7,0.4,2.3,0.3c0.1,0,0.1,0.1,0.2,0l0,0c0.2,0.1,0.4,0.1,0.8,0.1
		c0,0,0.4,0,0.5,0c0,0,0.1,0,0.1,0c0,0.1,0,0.2,0,0.3c0,0,0,0.1-0.1,0.2c-0.2,0.7-0.6,1.2-0.7,2c0,0.2,0,0.4,0.1,0.6
		c0,0.3,0.1,0.6,0.3,0.8c0.2,0.4,0.3,0.7,0.6,1c0.9,1.2,0.9,1.2,1.5,1.8c0.4,0.4,1,0.8,1.7,0.9c0.3,0.1,0.6,0.1,0.9,0.2
		c0.4,0.1,0.8-0.1,1.1,0c0.2,0,0.3,0.1,0.5,0.2c0.4,0.2,0.7,0.5,1.1,0.7c0.4,0.2,0.3,0.2,0.8,0.4c0.1,0,0.7-0.1,0.8-0.1
		c0.1,0,0.3,0.3,0.3,0.3c0.4,0.1,0.4,0.2,0.9,0.4c0.4,0.2,0.8,0.1,1.3,0.3c0.2,0.1,0.2,0,0.4,0c0.1,0,0.3,0.1,0.4,0
		c0.2,0,0.3,0,0.6,0c0.5-0.2,1-0.3,1.5-0.5c0.5-0.2,0.8-0.7,1.3-0.8c0.1,0,0.4,0,0.5-0.1c0.9-0.3,1.4-0.4,2.3-0.7
		c0.9-0.3,1.9-0.8,2.7-1.4c0.4-0.3,1.1-0.9,1.4-1.3V21.6c-0.4,0.1-0.7,0.1-1.1,0.2c-0.9,0.2-1.9,0.8-2.8,0.9c-0.4,0-0.5-0.2-0.8-0.3
		c-0.2,0-0.5-0.2-0.7-0.3c-0.1,0-0.2,0-0.3,0c-1,0-1.7,0.2-2.7,0.7c-1,0.5-1.8,0.9-3,1c-1,0.1-2.4-0.1-3.4,0.2
		c-1,0.3-1.7,0.8-2.7,1.2c-0.9,0.4-1.8,0.5-2.6,1c-0.1,0-0.3,0.1-0.4,0.2c-0.2,0.1-0.3,0.2-0.5,0.3c-0.7,0.4-1.2,0.7-2,1
		c-0.4,0.1-0.8,0.2-1.2,0.4c-0.4,0.2-0.7,0.8-1,1c-0.2,0.1-0.4,0-0.6,0.1c-0.8,0.4-1.6,0.9-2.5,1.4c-0.2,0.1-0.3,0.2-0.5,0.3"/>
	<path class="st1" d="M64.1,68.4C64.1,68.4,64.1,68.4,64.1,68.4L64.1,68.4C64.1,68.4,64.1,68.4,64.1,68.4L64.1,68.4z"/>
	<path class="st1" d="M64.1,68.5L64.1,68.5C64.1,68.4,64.1,68.4,64.1,68.5L64.1,68.5C64.1,68.5,64.1,68.5,64.1,68.5z"/>
	<path class="st1" d="M64.1,68.5v30.8l0,0L64.1,68.5C64.1,68.5,64.1,68.5,64.1,68.5z"/>
	<path class="st1" d="M64.1,15.9L93,9.1V3.7L64.1,15.9l0,5.7c0,0,0,0,0,0V15.9z"/>
	<path class="st1" d="M64.1,44.7l0-23v46.6c0,0,0,0,0,0.1V44.7z"/>
	<path class="st1" d="M64.1,21.7v-0.1c0,0,0,0,0,0L64.1,21.7C64.1,21.7,64.1,21.7,64.1,21.7z"/>
	<path class="st1" d="M64.1,21.7l0,23L64.1,21.7C64.1,21.7,64.1,21.7,64.1,21.7z"/>
	<path class="st1" d="M64.1,68.4C64.1,68.5,64.1,68.5,64.1,68.4C64.1,68.5,64.1,68.4,64.1,68.4L64.1,68.4z"/>
	<path class="st1" d="M64.1,68.5C64.1,68.5,64.1,68.5,64.1,68.5C64.1,68.5,64.1,68.5,64.1,68.5L64.1,68.5z"/>
	<path class="st1" d="M64.1,21.6C64.1,21.6,64.1,21.6,64.1,21.6l0-5.7L93,12.6V9.1l-28.9,6.8V21.6z"/>
	<path class="st1" d="M64.1,68.5C64.1,68.5,64.1,68.5,64.1,68.5l0,30.9l0,0V68.5z"/>
	<path class="st1" d="M64.1,21.6v0.1c0.7-0.1,1.4-0.2,2.1-0.1c0.7,0.1,2.1,0,2,0.6c0.2-0.1,0.5-0.2,0.7-0.2c0.5-0.1,0.9-0.3,1.4-0.3
		c0.4,0,0.8,0,1.2,0.1c0.3,0,0.7,0.1,1,0.1c1,0.1,1.9,0.3,2.9,0.5c0.8,0,1.9,0.2,2.3,0.5c0.6,0.5,0.3,0.5,1.1,0.2
		c0.5-0.2,1-0.2,1.6,0.1c0.7,0.3,2,0.7,2.6,1.2c0.5,0.4,0.4,0.4,1.2,0.5c0.5,0,1,0.2,1.4,0.5c0.3,0.3,0.5,0.7,0.9,0.9
		c0.1,0.1,0.2,0.2,0.3,0.3c0.3,0.2,0.7,0.2,0.9,0.4c0.6,0.4,1.3,0.6,1.8,1.1c0.1,0.1,0.3,0.3,0.4,0.5c0.9,1,2.2,1.7,3.2,2.8V12.6
		l-28.9,3.3V21.6z"/>
	<path class="st1" d="M93,31.5c-0.9-1.1-2.2-1.8-3.2-2.8c-0.1-0.2-0.3-0.3-0.4-0.5c-0.5-0.5-1.2-0.7-1.8-1.1
		c-0.3-0.2-0.6-0.2-0.9-0.4c-0.1-0.1-0.2-0.2-0.3-0.3c-0.4-0.3-0.6-0.7-0.9-0.9c-0.4-0.4-0.8-0.5-1.4-0.5c-0.7-0.1-0.6-0.1-1.2-0.5
		c-0.6-0.5-1.9-0.9-2.6-1.2c-0.6-0.3-1.1-0.3-1.6-0.1c-0.8,0.3-0.6,0.3-1.1-0.2c-0.4-0.4-1.6-0.6-2.3-0.5c-1-0.2-1.9-0.4-2.9-0.5
		c-0.3,0-0.7-0.1-1-0.1c-0.4,0-0.8-0.1-1.2-0.1c-0.5,0-0.9,0.2-1.4,0.3c-0.2,0-0.5,0.1-0.7,0.2c0-0.6-1.3-0.6-2-0.6
		c-0.7-0.1-1.4,0-2.1,0.1v46.8c1.7,1.6,3.6,2.9,5.5,2.9c0.1,1.1,0.6,1.3,1.1,2.2c0.5,0.9,1.1,1.3,1.8,2.1c0.3,0.4,0.7,0.7,1,1
		c0.3,0.3,0.5,0.4,0.8,0.7c0,0.1,0.3,0.2,0.3,0.2c0,0,0.3,0.2,0.3,0.3c0.5,0.6,0.8,1.4,1.1,2.2c0.8,1.9,1.4,3.7,2.1,5.7
		c0.4,1.1,0.8,2,2,2c0.4,0,0.8,0.1,1.3,0.1c0.4,0,0.8-0.1,1.1-0.3c0.3-0.2,0.6-0.2,0.7-0.6c0.1-0.2-0.2-0.5-0.3-0.7
		c-0.1-0.2-0.1-0.5-0.2-0.8c-0.2-0.5-0.3-1-0.4-1.3c-0.3-1-0.6-2.1-0.8-3.1c-0.2-0.9-0.3-1.9-0.4-2.8c0.2,0.1,0.3,0.2,0.6,0.2
		c0.5,0.1,0.8,0.2,1.2,0.3c0.9,0.3,2.4,0.2,3.3,0.1c1.1-0.1,2.1-0.2,3-0.7c0.2-0.1,0.3-0.3,0.5-0.4c0.1-0.1,0.1-0.2,0.2-0.2
		c0.1-0.1,0.4,0,0.5,0c0.4-0.2,0.7-0.3,1.1-0.5c0.4-0.2,0.9-0.4,1.3-0.6"/>
	<path class="st1" d="M90.6,77.5c-0.1,0-0.4,0-0.5,0c-0.1,0.1-0.1,0.2-0.2,0.2c-0.2,0.1-0.3,0.3-0.5,0.4c-0.9,0.5-1.9,0.6-3,0.7
		c-0.9,0.1-2.4,0.2-3.3-0.1c-0.5-0.2-0.7-0.2-1.2-0.3c-0.3-0.1-0.4-0.1-0.6-0.2c0.1,0.9,0.2,1.9,0.4,2.8c0.2,1,0.5,2.1,0.8,3.1
		c0.1,0.4,0.2,0.9,0.4,1.3c0.1,0.2,0.2,0.5,0.2,0.8c0.1,0.2,0.3,0.5,0.3,0.7c-0.1,0.4-0.4,0.4-0.7,0.6c-0.3,0.2-0.7,0.2-1.1,0.3
		c-0.5,0-0.9-0.1-1.3-0.1c-1.2,0-1.6-0.9-2-2c-0.8-1.9-1.4-3.8-2.1-5.7c-0.3-0.8-0.5-1.5-1.1-2.2c0-0.1-0.3-0.2-0.3-0.3
		c0-0.1-0.3-0.2-0.3-0.2c-0.3-0.3-0.5-0.4-0.8-0.7c-0.3-0.3-0.7-0.6-1-1c-0.7-0.8-1.2-1.2-1.8-2.1c-0.5-0.9-1-1.2-1.1-2.2
		c-1.9,0-3.8-1.3-5.5-2.9v30.9L93,87.1V76.3c-0.4,0.2-0.9,0.4-1.3,0.6C91.3,77.2,91,77.3,90.6,77.5z"/>
	<path class="st1" d="M64.1,21.6C64.1,21.6,64.1,21.6,64.1,21.6l0,0.1c0,0,0,0,0,0V21.6z"/>
	<path class="st1" d="M64.1,21.7v23l0,23.8L64.1,21.7C64.1,21.7,64.1,21.7,64.1,21.7z"/>
	<path class="st1" d="M64.1,68.4C64.1,68.4,64.1,68.5,64.1,68.4V44.7V68.4z"/>
</g>
</svg>
