<?xml version="1.0" encoding="utf-8"?>
<!-- Generator: Adobe Illustrator 27.7.0, SVG Export Plug-In . SVG Version: 6.00 Build 0)  -->
<svg version="1.1" id="Layer_1" xmlns="http://www.w3.org/2000/svg" xmlns:xlink="http://www.w3.org/1999/xlink" x="0px" y="0px"
	 viewBox="0 0 291 104.2" style="enable-background:new 0 0 291 104.2;" xml:space="preserve">
<style type="text/css">
	.st0{fill:#FFFFFF;stroke:#000000;stroke-width:1.5;stroke-linecap:round;stroke-linejoin:round;stroke-miterlimit:10;}
	.st1{fill:#FFFFFF;}
</style>
<polygon class="st0" points="63.9,99.3 6.1,92.8 6.1,9.4 63.9,15.9 "/>
<polygon class="st0" points="121.9,92.8 64.1,99.3 64.1,15.9 121.9,9.4 "/>
<polygon class="st0" points="63.9,99.3 19.2,88.1 19.2,5.3 63.9,15.9 "/>
<polygon class="st0" points="108.9,88.1 64.1,99.3 64.1,15.9 108.9,5.3 "/>
<polygon class="st0" points="63.9,99.3 35,88.1 35,4.7 63.9,15.9 "/>
<polygon class="st0" points="93,88.1 64.1,99.3 64.1,15.9 93,4.7 "/>
<g>
	<path class="st1" d="M140.1,36.5c-2.7,0-3.9-1.6-3.9-3.8v-7.5H132v-2.8h2.8c1.1,0,1.6-0.4,1.6-1.6v-3.4h3.3v5h5.8v2.8h-5.8v8.6h5.8
		v2.8h-5.4V36.5z"/>
	<path class="st1" d="M149.4,16.2h3.5v8.6h0.1c0.6-1.5,1.8-2.8,4.1-2.8c2.8,0,4.7,1.9,4.7,5.3v9.1h-3.5v-8.6c0-2-0.9-3.1-2.7-3.1
		c-1.4,0-2.8,0.7-2.8,2.2v9.5h-3.5L149.4,16.2L149.4,16.2z"/>
	<path class="st1" d="M165.3,29.4c0-4.6,2.6-7.4,6.8-7.4c4.1,0,6.7,2.8,6.7,7.1v1.2h-9.9v0.4c0,2,1.3,3.4,3.6,3.4
		c1.7,0,3-0.8,3.8-1.9l2,2c-1,1.5-3,2.7-5.9,2.7C167.8,36.8,165.3,33.9,165.3,29.4z M168.8,28v0.2h6.4V28c0-2-1.2-3.3-3.1-3.3
		C170.1,24.6,168.8,25.9,168.8,28z"/>
	<path class="st1" d="M133.9,54.2c0-4.5,2.6-7.4,6.9-7.4s6.9,2.9,6.9,7.4s-2.6,7.4-6.9,7.4S133.9,58.8,133.9,54.2z M144.1,55.3v-2.2
		c0-2.4-1.3-3.6-3.3-3.6s-3.3,1.3-3.3,3.6v2.2c0,2.4,1.3,3.6,3.3,3.6C142.8,58.9,144.1,57.7,144.1,55.3z"/>
	<path class="st1" d="M150.9,47.1h3.5v2.5h0.2c0.8-1.7,2.1-2.8,4.2-2.8c3.2,0,5.4,2.4,5.4,7.4s-2.2,7.4-5.4,7.4
		c-2.2,0-3.5-1.1-4.2-2.8h-0.2v8h-3.5V47.1z M160.6,55.3v-2.2c0-2.1-1.2-3.5-3.2-3.5c-1.6,0-2.9,0.8-2.9,2.4v4.4
		c0,1.6,1.3,2.4,2.9,2.4C159.4,58.8,160.6,57.5,160.6,55.3z"/>
	<path class="st1" d="M167,54.2c0-4.6,2.6-7.4,6.8-7.4c4.1,0,6.7,2.8,6.7,7.1v1.2h-9.9v0.4c0,2,1.3,3.4,3.6,3.4c1.7,0,3-0.8,3.8-1.9
		l2,2c-1,1.5-3,2.7-5.9,2.7C169.5,61.6,167,58.8,167,54.2z M170.5,52.8V53h6.4v-0.2c0-2-1.2-3.3-3.1-3.3
		C171.8,49.4,170.5,50.8,170.5,52.8z"/>
	<path class="st1" d="M184,61.3V47.1h3.5v2.5h0.1c0.6-1.5,1.8-2.8,4.1-2.8c2.8,0,4.7,1.9,4.7,5.3v9.1H193v-8.6c0-2-0.9-3.1-2.7-3.1
		c-1.4,0-2.8,0.7-2.8,2.2v9.5L184,61.3L184,61.3z"/>
	<path class="st1" d="M207.7,41h3.5v8.6h0.2c0.8-1.7,2.1-2.8,4.2-2.8c3.2,0,5.4,2.4,5.4,7.4s-2.2,7.4-5.4,7.4
		c-2.2,0-3.5-1.1-4.2-2.8h-0.2v2.5h-3.5V41z M217.3,55.3v-2.2c0-2.1-1.2-3.5-3.2-3.5c-1.6,0-2.9,0.8-2.9,2.4v4.4
		c0,1.6,1.3,2.4,2.9,2.4C216.1,58.8,217.3,57.5,217.3,55.3z"/>
	<path class="st1" d="M224.3,58.5h3.5v-8.6h-3.5v-2.8h7V51h0.2c0.5-2,1.7-3.9,4.5-3.9h1.5v3.3h-2.9c-2.2,0-3.4,1.5-3.4,3.3v4.8h4.9
		v2.8h-11.9L224.3,58.5L224.3,58.5z"/>
	<path class="st1" d="M252.1,61.3c-1.7,0-2.7-0.9-2.8-2.4h-0.1c-0.5,1.8-2.1,2.8-4.3,2.8c-2.8,0-4.7-1.6-4.7-4.2
		c0-2.9,2.1-4.3,6.3-4.3h2.5v-0.9c0-1.8-0.8-2.7-2.8-2.7c-1.8,0-2.8,0.8-3.6,1.9l-2-1.7c0.9-1.6,2.9-2.8,5.9-2.8
		c3.7,0,5.9,1.8,5.9,5.2v6.7h1.7v2.6h-2V61.3z M249,57v-1.9h-2.4c-1.9,0-2.9,0.6-2.9,1.8v0.5c0,1.1,0.9,1.7,2.4,1.7
		C247.7,59.2,249,58.3,249,57z"/>
	<path class="st1" d="M257.8,58.5h4.7v-8.6h-4.7v-2.8h8.2v11.4h4.3v2.8h-12.5V58.5z M262,43.2v-0.7c0-1,0.6-1.8,2.2-1.8
		s2.2,0.8,2.2,1.8v0.7c0,1-0.6,1.8-2.2,1.8C262.6,44.9,262,44.2,262,43.2z"/>
	<path class="st1" d="M273.6,61.3V47.1h3.5v2.5h0.1c0.6-1.5,1.8-2.8,4.1-2.8c2.8,0,4.7,1.9,4.7,5.3v9.1h-3.5v-8.6
		c0-2-0.9-3.1-2.7-3.1c-1.4,0-2.8,0.7-2.8,2.2v9.5L273.6,61.3L273.6,61.3z"/>
	<path class="st1" d="M125.5,86.2v-0.8c0-1.2,0.7-2.1,2.6-2.1s2.6,0.9,2.6,2.1v0.8c0,1.2-0.7,2.1-2.6,2.1S125.5,87.3,125.5,86.2z"/>
	<path class="st1" d="M134.5,80.9c0-4.5,2.6-7.4,6.9-7.4s6.9,2.9,6.9,7.4s-2.6,7.4-6.9,7.4S134.5,85.4,134.5,80.9z M144.6,82v-2.2
		c0-2.4-1.3-3.6-3.3-3.6s-3.3,1.3-3.3,3.6V82c0,2.4,1.3,3.6,3.3,3.6C143.4,85.6,144.6,84.3,144.6,82z"/>
	<path class="st1" d="M151.6,85.2h3.5v-8.6h-3.5v-2.8h7v3.9h0.2c0.5-2,1.7-3.9,4.5-3.9h1.5v3.3h-2.9c-2.2,0-3.4,1.5-3.4,3.3v4.8h4.9
		V88h-11.9L151.6,85.2L151.6,85.2z"/>
	<path class="st1" d="M174.2,93.8c-5.1,0-6.7-1.3-6.7-3.3c0-1.6,1-2.3,2.6-2.7v-0.2c-1.1-0.4-1.8-1-1.8-2.1c0-1.4,1-2,2.5-2.4V83
		c-1.7-0.8-2.7-2.3-2.7-4.4c0-3.1,2.4-5,5.9-5c1,0,1.8,0.1,2.6,0.4v-0.6c0-1.1,0.7-1.9,2-1.9h2.5V74h-3.3v0.5c1.4,0.8,2.2,2.2,2.2,4
		c0,3.2-2.4,5-6,5c-0.7,0-1.4-0.1-2-0.2c-0.5,0.2-1.1,0.6-1.1,1.2c0,0.9,1,1,2.1,1h3.2c3.9,0,5.5,1.6,5.5,4
		C181.8,92.4,179.4,93.8,174.2,93.8z M176.2,88.3h-4.9c-0.5,0.3-0.8,0.8-0.8,1.4c0,1,0.8,1.7,2.7,1.7h2.3c2.1,0,3.1-0.6,3.1-1.7
		C178.5,88.8,178,88.3,176.2,88.3z M176.7,78.8v-0.7c0-1.4-0.8-2.3-2.6-2.3s-2.6,1-2.6,2.3v0.7c0,1.4,0.8,2.3,2.6,2.3
		C175.9,81.2,176.7,80.2,176.7,78.8z"/>
</g>
<path class="st0" d="M62.8,21.9c-0.9,0.2-1.9,0.8-2.8,0.9c-0.4,0-0.5-0.2-0.8-0.3c-0.2,0-0.5-0.2-0.7-0.3c-0.1,0-0.2,0-0.3,0
	c-1,0-1.7,0.2-2.7,0.7s-1.8,0.9-3,1c-1,0.1-2.4-0.1-3.4,0.2c-1,0.3-1.7,0.8-2.7,1.2c-0.9,0.4-1.8,0.5-2.6,1c-0.1,0-0.3,0.1-0.4,0.2
	c-0.2,0.1-0.3,0.2-0.5,0.3c-0.7,0.4-1.2,0.7-2,1c-0.4,0.1-0.8,0.2-1.2,0.4c-0.4,0.2-0.7,0.8-1,1c-0.2,0.1-0.4,0-0.6,0.1
	c-0.8,0.4-1.6,0.9-2.5,1.4c-0.4,0.2-0.8,0.6-1,0.9c-0.3,0.4-0.4,1-0.8,1.4c-0.1,0.1-0.4,0-0.5,0c-0.3,0-0.5,0-0.7,0.1
	c-0.1,0-0.2,0.1-0.3,0.2c-0.1,0.1-0.2,0.3-0.3,0.3c-0.3,0.2-0.5,0.4-0.8,0.6c-0.4,0.3-0.9,0.6-1.2,1c-0.4,0.4-0.4,0.9-0.7,1.3
	c-0.6,0.7-1.6,1-2.2,1.7c-0.5,0.6-0.7,1.3-1.2,1.7c-0.1,0-0.3,0.3-0.4,0.4c-0.6,0.6-1,1.8-1.2,2.2c-0.1,0.3-0.1,0.7-0.2,1
	c-0.2,0.7-0.5,1.1-0.4,2.2c0.1,0.6,0.1,0.7-0.1,1.3c-0.3,0.6-0.2,1.2-0.2,1.8c-0.1,1.1,0.1,1,0.1,3.2c0,1,0.4,1.8,1.2,2.4
	c0.2,0.2,0.6,0.3,0.8,0.4c0.1,0.1,0.1,0.3,0.2,0.5c0.2,0.4,0.3,0.4,0.5,0.9c0.2,0.3,0.5,0.7,0.8,1.1c0.2,0.2,0.3,0.4,0.5,0.6
	c0.3,0.4,0.5,0.7,0.7,1c0.4,0.4,0.6,0.7,1.1,1c0.6,0.3,0.9,0.4,1.5,0.5c0.7,0.1,1.3,0.5,2,0.8c0.7,0.3,0.6,0.8,2.1,1
	c0.9,0.2,1.9,0,2.9,0.2c0.5,0.1,1.7,0.4,2.3,0.3c0.1,0,0.1,0.1,0.2,0l0,0c0.2,0.1,0.4,0.1,0.8,0.1c0,0,0.4,0,0.5,0h0.1
	c0,0.1,0,0.2,0,0.3c0,0,0,0.1-0.1,0.2c-0.2,0.7-0.6,1.2-0.7,2c0,0.2,0,0.4,0.1,0.6c0,0.3,0.1,0.6,0.3,0.8c0.2,0.4,0.3,0.7,0.6,1
	c0.9,1.2,0.9,1.2,1.5,1.8c0.4,0.4,1,0.8,1.7,0.9c0.3,0.1,0.6,0.1,0.9,0.2c0.4,0.1,0.8-0.1,1.1,0c0.2,0,0.3,0.1,0.5,0.2
	c0.4,0.2,0.7,0.5,1.1,0.7c0.4,0.2,0.3,0.2,0.8,0.4c0.1,0,0.7-0.1,0.8-0.1s0.3,0.3,0.3,0.3c0.4,0.1,0.4,0.2,0.9,0.4
	c0.4,0.2,0.8,0.1,1.3,0.3c0.2,0.1,0.2,0,0.4,0c0.1,0,0.3,0.1,0.4,0c0.2,0,0.3,0,0.6,0c0.5-0.2,1-0.3,1.5-0.5s0.8-0.7,1.3-0.8
	c0.1,0,0.4-0.1,0.5-0.1c0.9-0.3,1.4-0.4,2.3-0.7c0.9-0.3,1.9-0.8,2.7-1.4c0.5-0.3,1.2-1,1.5-1.3l0,0c0.2,0.5-0.2,0,0,0.4
	c0.1,0.1,0.1,0.2,0.1,0.3V21.6C63.7,21.7,63.2,21.7,62.8,21.9z"/>
<path class="st0" d="M104.6,56.1c0.1-1.1-0.4-1.7-0.3-2.9c0.1-1.1-0.1-2.1-0.7-3c-0.3-0.4-0.6-0.7-0.7-1.3c-0.1-0.5-0.1-1-0.2-1.5
	c-0.3-0.9-0.9-1.9-1.6-2.5c-0.5-0.4-0.7-0.6-0.7-1.2c0-0.5-0.2-1-0.4-1.5c-0.3-0.9-1.1-1.9-1.6-2.6c-0.4-0.5-0.8-0.7-1.2-0.9
	c0-0.4-0.3-0.9-0.2-1.3c0,0,0-0.1-0.1-0.1c-0.2-0.8-0.7-1.6-1.3-2.2c-0.3-0.3-0.7-0.8-1.1-1.2c-0.2-0.2-0.4-0.2-0.6-0.4
	c-0.2-0.3-0.1-0.6-0.2-0.9c-0.8-1.9-2.6-2.7-3.9-4c-0.1-0.2-0.3-0.3-0.4-0.5c-0.5-0.5-1.2-0.7-1.8-1.1c-0.3-0.2-0.6-0.2-0.9-0.4
	c-0.1-0.1-0.2-0.2-0.3-0.3c-0.4-0.3-0.6-0.7-0.9-0.9c-0.4-0.4-0.8-0.5-1.4-0.5c-0.7-0.1-0.6-0.1-1.2-0.5c-0.6-0.5-1.9-0.9-2.6-1.2
	c-0.6-0.3-1.1-0.3-1.6-0.1c-0.8,0.3-0.6,0.3-1.1-0.2c-0.4-0.4-1.6-0.6-2.3-0.5c-1-0.2-1.9-0.4-2.9-0.5c-0.3,0-0.7-0.1-1-0.1
	c-0.4,0-0.8-0.1-1.2-0.1c-0.5,0-0.9,0.2-1.4,0.3c-0.2,0-0.5,0.1-0.7,0.2c0-0.6-1.3-0.6-2-0.6c-0.7-0.1-1.4,0-2.1,0.1l0.1,46.8
	c-0.1,0.3-0.3-0.3,0,0c1.7,1.6,3.6,2.9,5.5,2.9c0.1,1.1,0.6,1.3,1.1,2.2c0.5,0.9,1.1,1.3,1.8,2.1c0.3,0.4,0.7,0.7,1,1
	s0.5,0.4,0.8,0.7c0,0.1,0.3,0.2,0.3,0.2s0.3,0.2,0.3,0.3c0.5,0.6,0.8,1.4,1.1,2.2c0.8,1.9,1.4,3.7,2.1,5.7c0.4,1.1,0.8,2,2,2
	c0.4,0,0.8,0.1,1.3,0.1c0.4,0,0.8-0.1,1.1-0.3c0.3-0.2,0.6-0.2,0.7-0.6c0.1-0.2-0.2-0.5-0.3-0.7c-0.1-0.2-0.1-0.5-0.2-0.8
	c-0.2-0.5-0.3-1-0.4-1.3c-0.3-1-0.6-2.1-0.8-3.1c-0.2-0.9-0.3-1.9-0.4-2.8c0.2,0.1,0.3,0.2,0.6,0.2c0.5,0.1,0.8,0.2,1.2,0.3
	c0.9,0.3,2.4,0.2,3.3,0.1c1.1-0.1,2.1-0.2,3-0.7c0.2-0.1,0.3-0.3,0.5-0.4c0.1-0.1,0.1-0.2,0.2-0.2c0.1-0.1,0.4,0,0.5,0
	c0.4-0.2,0.7-0.3,1.1-0.5c0.8-0.5,1.7-0.7,2.4-1.3c0.3-0.2,1.1-0.9,2.1-1.9c0,0,0.4-0.5,0.4-0.6c0.9-0.9,1.6-1.2,1.7-1.9
	c0.1-0.4,0.6-1.2,0.9-1.8c0.3-0.6,1-1.2,0.8-1.9c0.5-0.3,0.5-1.7-0.1-1.7c0.1-0.8-0.4-1.6-1.5-2.4c0.1-0.9-0.6-1.3-1.4-1.7
	c-0.6-0.3-1.3-0.5-1.9-0.7c1,0.2,2.5,0.8,3.4,0.4c0.3-0.1,0.6-0.1,0.9-0.3c0.2-0.1,0.4,0,0.6,0c0.4,0,0.8,0,1.1-0.2
	c0.1-0.1,0.3-0.3,0.5-0.4c0.1-0.1,0.3,0,0.3-0.1c0.2-0.1,0.4-0.2,0.7-0.3c0.5-0.2,0.9-0.9,1.1-1.4C104,58.1,104.5,57,104.6,56.1"/>
</svg>
