<?xml version="1.0" encoding="UTF-8"?>
<svg id="Layer_1" data-name="Layer 1" xmlns="http://www.w3.org/2000/svg" viewBox="0 0 63.85 29.96">
  <defs>
    <style>
      .cls-1 {
        fill: #fff;
      }

      .cls-2 {
        fill: #231f20;
      }
    </style>
  </defs>
  <g>
    <path class="cls-1" d="M31.92,29.46C15.5,29.46,2.83,17.19,.69,14.98,2.83,12.78,15.51,.5,31.92,.5s29.09,12.28,31.23,14.48c-2.14,2.2-14.82,14.48-31.23,14.48Z"/>
    <path class="cls-2" d="M31.92,1c15.49,0,27.65,11.11,30.53,13.98-2.88,2.87-15.04,13.98-30.53,13.98S4.28,17.86,1.39,14.98C4.28,12.11,16.43,1,31.92,1m0-1C13.55,0,0,14.98,0,14.98c0,0,13.55,14.98,31.92,14.98s31.92-14.98,31.92-14.98c0,0-13.55-14.98-31.92-14.98h0Z"/>
  </g>
  <g>
    <path d="M31.77,29.46c-7.99,0-14.48-6.5-14.48-14.48S23.78,.5,31.77,.5s14.48,6.5,14.48,14.48-6.5,14.48-14.48,14.48Z"/>
    <path class="cls-2" d="M31.77,1c7.71,0,13.98,6.27,13.98,13.98s-6.27,13.98-13.98,13.98-13.98-6.27-13.98-13.98S24.06,1,31.77,1m0-1c-8.27,0-14.98,6.71-14.98,14.98s6.71,14.98,14.98,14.98,14.98-6.71,14.98-14.98S40.04,0,31.77,0h0Z"/>
  </g>
</svg>