<?xml version="1.0" encoding="utf-8"?>
<!-- Generator: Adobe Illustrator 27.6.1, SVG Export Plug-In . SVG Version: 6.00 Build 0)  -->
<svg version="1.1" id="Layer_1" xmlns="http://www.w3.org/2000/svg" xmlns:xlink="http://www.w3.org/1999/xlink" x="0px" y="0px"
	 viewBox="0 0 21 21" style="enable-background:new 0 0 21 21;" xml:space="preserve">
<style type="text/css">
	.st0{fill:#F1F6F8;}
	.st1{fill:none;stroke:#000000;stroke-width:1.3;stroke-miterlimit:10;}
</style>
<circle cx="10.5" cy="10.5" r="9.1"/>
<path class="st0" d="M16.1,5.2l-0.8,3.5c-0.2,0.6-0.4,1.1-0.6,1.8c-0.2,0.6-0.4,1.1-0.7,1.7c0.3,0.7,0.6,1.1,0.8,1.6
	c0.3,0.3,0.6,0.5,0.9,0.5c0.3,0,0.5-0.1,0.7-0.3c0.2-0.2,0.3-0.5,0.3-0.8h0.5v0.3c0,0.8-0.1,1.6-0.4,2s-0.6,0.7-1,0.7
	s-0.9-0.2-1.3-0.6c-0.3-0.4-0.6-1.1-0.8-2.3c-0.6,1-1.3,1.9-2.1,2.3C11,16,10,16.1,9.1,16.1c-1.5,0-2.7-0.5-3.8-1.6s-1.5-2.4-1.5-4
	c0-1.5,0.5-2.7,1.6-3.9c1-1,2.3-1.6,3.7-1.6c1,0,2,0.3,2.6,0.9c0.7,0.7,1.1,1.6,1.5,2.9L13.9,5h2.3L16.1,5.2z M12.8,10.2
	c-0.4-1.7-0.8-2.7-1.4-3.5c-0.6-0.7-1.3-1-2.2-1C8.3,5.7,7.7,6.1,7,6.9S6.3,9,6.3,10.5c0,1.6,0.3,2.8,0.8,3.8s1.3,1.3,2.3,1.3
	c0.8,0,1.6-0.4,2.2-1C12,13.5,12.4,12.2,12.8,10.2z"/>
<path class="st1" d="M1,1.1h19v19H1V1.1z"/>
</svg>
