<?xml version="1.0" encoding="utf-8"?>
<!-- Generator: Adobe Illustrator 27.6.1, SVG Export Plug-In . SVG Version: 6.00 Build 0)  -->
<svg version="1.1" id="extra_illus." xmlns="http://www.w3.org/2000/svg" xmlns:xlink="http://www.w3.org/1999/xlink" x="0px"
	 y="0px" viewBox="0 0 21 21" style="enable-background:new 0 0 21 21;" xml:space="preserve">
<style type="text/css">
	.st0{stroke:#000000;stroke-width:0.3;stroke-linecap:round;stroke-linejoin:round;stroke-miterlimit:10;}
</style>
<g>
	<path d="M10.5,5.3c-1.8,0-3.3,1.5-3.3,3.3V17c0,1.8,1.5,3.3,3.3,3.3s3.3-1.5,3.3-3.3V8.6C13.8,6.8,12.3,5.3,10.5,5.3L10.5,5.3z"/>
	<path class="st0" d="M13.6,2.2c0-0.4-0.1-0.8-0.2-1.2c-0.5,1.1-1.6,1.9-2.9,1.9S8.1,2.1,7.6,1C7.5,1.4,7.4,1.8,7.4,2.2
		c0,1.7,1.4,3.1,3.1,3.1S13.6,3.9,13.6,2.2z"/>
</g>
<text transform="matrix(1 0 0 1 -37.4814 100)"><tspan x="0" y="0" style="font-family:'MyriadPro-Regular'; font-size:12px;">horizontal-cells.svg</tspan><tspan x="0" y="14.4" style="font-family:'MyriadPro-Regular'; font-size:12px;">ganglion-cells.svg</tspan><tspan x="0" y="28.8" style="font-family:'MyriadPro-Regular'; font-size:12px;">bipolar-cells.svg</tspan><tspan x="0" y="43.2" style="font-family:'MyriadPro-Regular'; font-size:12px;">amacrine-cells.svg</tspan></text>
</svg>
